<svg xmlns="http://www.w3.org/2000/svg" height="48" viewBox="0 96 960 960" width="48"><path d="M651 491q12.75 0 21.375-8.675 8.625-8.676 8.625-21.5 0-12.825-8.625-21.325T651 431H483q-12.75 0-21.375 8.675-8.625 8.676-8.625 21.5 0 12.825 8.625 21.325T483 491h168Zm0 230q12.75 0 21.375-8.675 8.625-8.676 8.625-21.5 0-12.825-8.625-21.325T651 661H483q-12.75 0-21.375 8.675-8.625 8.676-8.625 21.5 0 12.825 8.625 21.325T483 721h168ZM348 513q21.45 0 36.725-15.275Q400 482.45 400 461q0-21.45-15.275-36.725Q369.45 409 348 409q-21.45 0-36.725 15.275Q296 439.55 296 461q0 21.45 15.275 36.725Q326.55 513 348 513Zm0 230q21.45 0 36.725-15.275Q400 712.45 400 691q0-21.45-15.275-36.725Q369.45 639 348 639q-21.45 0-36.725 15.275Q296 669.55 296 691q0 21.45 15.275 36.725Q326.55 743 348 743ZM180 936q-24 0-42-18t-18-42V276q0-24 18-42t42-18h600q24 0 42 18t18 42v600q0 24-18 42t-42 18H180Z"/></svg>